HIERARCHY
ROOT Hips
{
	OFFSET 0.000000 0.000000 0.000000
	CHANNELS 6 Xposition Yposition Zposition Zrotation Yrotation Xrotation 
	JOINT LHipJoint
	{
		OFFSET 0.000000 0.000000 0.000000
		CHANNELS 3 Zrotation Yrotation Xrotation
		JOINT LeftUpLeg
		{
			OFFSET 1.363060 -1.794630 0.839290
			CHANNELS 3 Zrotation Yrotation Xrotation
			JOINT LeftLeg
			{
				OFFSET 2.448110 -6.726130 0.000000
				CHANNELS 3 Zrotation Yrotation Xrotation
				JOINT LeftFoot
				{
					OFFSET 2.562200 -7.039590 0.000000
					CHANNELS 3 Zrotation Yrotation Xrotation
					JOINT LeftToeBase
					{
						OFFSET 0.157640 -0.433110 2.322550
						CHANNELS 3 Zrotation Yrotation Xrotation
						End Site
						{
							OFFSET 0.000000 0.000000 0.000000
						}
					}
				}
			}
		}
	}
	JOINT RHipJoint
	{
		OFFSET 0.000000 0.000000 0.000000
		CHANNELS 3 Zrotation Yrotation Xrotation
		JOINT RightUpLeg
		{
			OFFSET -1.305520 -1.794630 0.839290
			CHANNELS 3 Zrotation Yrotation Xrotation
			JOINT RightLeg
			{
				OFFSET -2.542530 -6.985550 0.000000
				CHANNELS 3 Zrotation Yrotation Xrotation
				JOINT RightFoot
				{
					OFFSET -2.568260 -7.056230 0.000000
					CHANNELS 3 Zrotation Yrotation Xrotation
					JOINT RightToeBase
					{
						OFFSET -0.164730 -0.452590 2.363150
						CHANNELS 3 Zrotation Yrotation Xrotation
						End Site
						{
							OFFSET 0.000000 0.000000 0.000000
						}
					}
				}
			}
		}
	}
	JOINT LowerBack
	{
		OFFSET 0.000000 0.000000 0.000000
		CHANNELS 3 Zrotation Yrotation Xrotation
		JOINT Spine
		{
			OFFSET 0.028270 2.035590 -0.193380
			CHANNELS 3 Zrotation Yrotation Xrotation
			JOINT Spine1
			{
				OFFSET 0.056720 2.048850 -0.042750
				CHANNELS 3 Zrotation Yrotation Xrotation
				JOINT Neck
				{
					OFFSET 0.000000 0.000000 0.000000
					CHANNELS 3 Zrotation Yrotation Xrotation
					JOINT Neck1
					{
						OFFSET -0.054170 1.746240 0.172020
						CHANNELS 3 Zrotation Yrotation Xrotation
						JOINT Head
						{
							OFFSET 0.104070 1.761360 -0.123970
							CHANNELS 3 Zrotation Yrotation Xrotation
							End Site
							{
								OFFSET 0.000000 0.000000 0.000000
							}
						}
					}
				}
				JOINT LeftShoulder
				{
					OFFSET 0.000000 0.000000 0.000000
					CHANNELS 3 Zrotation Yrotation Xrotation
					JOINT LeftArm
					{
						OFFSET 3.362410 1.200890 -0.311210
						CHANNELS 3 Zrotation Yrotation Xrotation
						JOINT LeftForeArm
						{
							OFFSET 4.983000 -0.000000 -0.000000
							CHANNELS 3 Zrotation Yrotation Xrotation
							JOINT LeftHand
							{
								OFFSET 3.483560 -0.000000 -0.000000
								CHANNELS 3 Zrotation Yrotation Xrotation
								JOINT LeftFingerBase
								{
									OFFSET 0.000000 0.000000 0.000000
									CHANNELS 3 Zrotation Yrotation Xrotation
									JOINT LeftHandIndex1
									{
										OFFSET 0.715260 -0.000000 -0.000000
										CHANNELS 3 Zrotation Yrotation Xrotation
										End Site
										{
											OFFSET 0.000000 0.000000 0.000000
										}
									}
								}
								JOINT LThumb
								{
									OFFSET 0.000000 0.000000 0.000000
									CHANNELS 3 Zrotation Yrotation Xrotation
									End Site
									{
										OFFSET 0.000000 0.000000 0.000000
									}
								}
							}
						}
					}
				}
				JOINT RightShoulder
				{
					OFFSET 0.000000 0.000000 0.000000
					CHANNELS 3 Zrotation Yrotation Xrotation
					JOINT RightArm
					{
						OFFSET -3.136600 1.374050 -0.404650
						CHANNELS 3 Zrotation Yrotation Xrotation
						JOINT RightForeArm
						{
							OFFSET -5.241900 -0.000000 -0.000000
							CHANNELS 3 Zrotation Yrotation Xrotation
							JOINT RightHand
							{
								OFFSET -3.444170 -0.000000 -0.000000
								CHANNELS 3 Zrotation Yrotation Xrotation
								JOINT RightFingerBase
								{
									OFFSET 0.000000 0.000000 0.000000
									CHANNELS 3 Zrotation Yrotation Xrotation
									JOINT RightHandIndex1
									{
										OFFSET -0.622530 -0.000000 -0.000000
										CHANNELS 3 Zrotation Yrotation Xrotation
										End Site
										{
											OFFSET 0.000000 0.000000 0.000000
										}
									}
								}
								JOINT RThumb
								{
									OFFSET 0.000000 0.000000 0.000000
									CHANNELS 3 Zrotation Yrotation Xrotation
									End Site
									{
										OFFSET 0.000000 0.000000 0.000000
									}
								}
							}
						}
					}
				}
			}
		}
	}
}
MOTION
Frames: 9
Frame Time: 0.008333
-22.210811 16.221772 12.330811 128.468509 78.676280 138.444762 -0.915378 -7.226537 -11.646328 -16.876267 -5.277051 -21.137281 -10.415422 9.907328 26.856861 1.982103 2.287544 1.028471 8.343878 -7.278105 -6.672411 4.083283 12.695868 -12.357195 1.092574 -9.443647 -9.088837 -3.740434 -18.021671 67.716287 25.092263 -1.950649 7.903058 10.439303 -0.639563 28.142709 -6.605541 -0.739432 27.192371 1.132470 2.448382 -11.291846 -2.682241 2.264342 -3.671384 -3.763106 0.540702 -12.370377 0.206291 0.344325 8.719717 6.395048 -6.523969 14.629527 12.522216 -2.833638 -2.619627 -88.121421 3.069419 14.550757 153.770541 -64.682262 -148.478488 -7.505667 18.721869 -3.822800 -0.000000 -0.000000 -0.000000 -0.000000 0.000000 0.000000 -0.000000 -0.000000 -0.000000 -12.212331 4.175894 0.493509 76.699339 26.832920 28.912864 -121.698152 66.298854 -103.146196 14.009034 0.458916 0.341356 0.000000 0.000000 0.000000 0.000000 0.000000 0.000000 0.000000 0.000000 0.000000 
-22.015766 16.129880 12.266366 126.572613 79.142942 136.049598 -0.806997 -6.943960 -11.607485 -17.003844 -5.955965 -20.893697 -10.418729 10.902390 29.054973 3.860418 3.002752 -0.178817 8.860319 -5.860732 -8.381744 4.292914 12.281156 -12.165133 0.565475 -8.942844 -10.534497 -5.845692 -19.062101 69.986382 24.326147 -1.623699 7.924699 9.351042 1.807365 26.001202 -6.356798 -0.699085 26.972381 1.146493 2.188282 -11.140781 -2.312864 2.010699 -3.845268 -3.997817 0.588144 -11.892266 0.408226 0.439921 8.658192 5.984700 -5.731404 14.342925 12.432252 -3.040220 -2.433453 -87.768380 1.257518 14.520484 153.077997 -65.495523 -148.283052 -7.609598 18.511327 -3.793708 -0.000000 -0.000000 -0.000000 0.000000 0.000000 0.000000 0.000000 0.000000 0.000000 -12.505960 4.532232 0.383087 76.979824 25.333821 29.862327 -117.814830 66.411215 -98.753397 13.084425 1.088101 0.485791 0.000000 0.000000 0.000000 0.000000 0.000000 0.000000 0.000000 0.000000 0.000000 
-21.821772 16.049399 12.214685 123.524737 79.556482 132.664094 -0.941871 -6.695690 -11.548342 -16.630767 -7.151935 -20.564701 -10.902584 12.068217 30.824698 6.009655 4.325089 -1.034107 12.462426 -7.928504 -11.671414 4.700277 12.098484 -11.955954 -0.451247 -7.789269 -11.817567 -6.944250 -20.332107 72.064107 22.218723 -1.717070 7.411694 8.264652 4.558245 24.191988 -6.432855 -0.562442 26.759846 1.235545 1.890868 -11.100751 -1.361651 1.660612 -3.864423 -4.711993 0.654816 -11.640186 0.598752 0.634115 8.599270 6.040602 -5.047957 14.162069 11.622674 -2.971538 -2.373077 -87.123249 -0.570506 14.109298 153.042930 -66.543043 -149.085791 -7.195138 18.635367 -3.755855 -0.000000 -0.000000 -0.000000 0.000000 0.000000 0.000000 -0.000000 0.000000 -0.000000 -13.109026 4.857660 0.464164 77.155288 24.330344 30.706593 -113.915157 66.650768 -94.674034 12.178553 1.109373 0.467556 0.000000 0.000000 -0.000000 -0.000000 -0.000000 -0.000000 0.000000 0.000000 -0.000000 
-21.628078 15.970270 12.176862 118.737665 79.905498 127.552600 -1.192323 -6.266050 -11.420381 -16.657097 -7.214484 -20.648305 -10.725458 13.188312 32.791648 7.521994 4.593428 -1.333497 11.860887 -5.982543 -12.280518 5.291840 12.113310 -11.786241 -1.602362 -7.461208 -13.330926 -8.070691 -20.525245 74.344288 19.781118 -1.864486 6.887660 7.022245 5.918559 21.607016 -6.952694 -0.377986 26.568001 1.360108 1.848311 -11.065142 -1.166861 1.634660 -2.973545 -4.652345 0.554557 -12.307283 0.790695 0.593938 8.539336 5.630546 -4.475975 14.064473 11.477116 -2.748595 -2.227265 -86.181865 -3.513898 13.519679 153.922967 -67.835635 -151.424182 -5.908057 19.351611 -3.699095 -0.000000 -0.000000 -0.000000 0.000000 -0.000000 0.000000 0.000000 -0.000000 -0.000000 -12.850367 4.328135 0.235058 77.267689 23.933803 31.237154 -110.139896 67.179862 -90.752165 10.892279 1.005414 0.409110 0.000000 0.000000 0.000000 0.000000 -0.000000 0.000000 0.000000 0.000000 0.000000 
-21.441441 15.892192 12.141907 114.402730 80.196903 122.877826 -1.399334 -6.011195 -11.373479 -16.427232 -7.618362 -20.480874 -11.370059 13.686705 34.666381 9.422272 6.152739 -1.579363 12.798493 -4.963476 -14.246847 5.891878 12.270829 -11.587496 -2.758799 -7.050601 -14.774304 -8.214196 -20.749135 76.459455 14.732516 -2.103987 6.147199 7.012801 10.854070 23.487889 -7.374536 -0.211180 26.472179 1.495217 1.756180 -11.040510 -0.664309 1.536459 -2.118995 -4.892431 0.487427 -12.969811 0.995941 0.637104 8.467365 5.226049 -3.854714 14.331212 10.951813 -2.480437 -2.000431 -85.090301 -6.533106 13.252306 153.872869 -68.972634 -152.035599 -5.132888 19.227654 -3.550054 -0.000000 -0.000000 -0.000000 -0.000000 -0.000000 0.000000 0.000000 0.000000 0.000000 -12.894337 3.821874 0.075264 77.328686 23.701918 31.640188 -106.127310 67.721520 -86.336541 9.565736 0.688860 0.304131 0.000000 0.000000 0.000000 -0.000000 0.000000 -0.000000 0.000000 0.000000 0.000000 
-21.248949 15.819219 12.115405 111.568037 80.437478 119.594879 -1.142342 -5.735935 -11.239527 -16.851172 -7.513803 -20.049202 -11.336731 14.323755 35.880577 10.921730 6.928392 -2.271411 14.017900 -5.076774 -15.722465 5.975756 12.006364 -11.572764 -2.919537 -6.630969 -16.191166 -9.661174 -21.162355 78.071394 12.263064 -2.223302 5.347187 5.391175 7.785247 18.467075 -7.571263 -0.118788 26.307624 1.576235 1.488645 -10.736528 0.007801 1.275553 -0.949021 -5.296533 0.479224 -13.742666 1.280479 0.754778 8.078417 4.945031 -3.162059 14.549539 10.836774 -1.824136 -1.750997 -84.814121 -10.533885 12.934136 155.179581 -69.895815 -154.527548 -2.512968 19.740923 -3.218792 -0.000000 -0.000000 -0.000000 0.000000 -0.000000 0.000000 0.000000 0.000000 0.000000 -13.465501 3.442971 -0.017217 77.780043 23.780607 30.583828 -102.417049 69.039792 -82.769218 9.782703 0.012184 0.154077 0.000000 0.000000 0.000000 0.000000 0.000000 -0.000000 0.000000 0.000000 0.000000 
-21.059009 15.758559 12.091096 108.936032 80.747596 116.618755 -1.009400 -5.544394 -11.156483 -17.031150 -7.179310 -19.683979 -10.969431 15.197494 36.981662 11.814450 7.233857 -2.736324 15.831127 -5.908371 -17.382959 6.278544 11.827319 -11.471513 -3.165236 -6.346268 -17.829216 -10.766549 -21.351398 79.563821 10.076962 -2.846220 4.512431 4.248021 7.046731 15.383643 -7.691565 -0.074292 26.201412 1.666184 1.278930 -10.554268 0.267838 1.059762 0.073254 -5.317964 0.476287 -14.452620 1.547624 0.812588 7.726019 4.602938 -2.440795 14.522364 10.833081 -1.276775 -1.476773 -84.239792 -14.514785 12.574217 156.407963 -70.917310 -157.625269 -0.624153 20.902361 -3.086597 -0.000000 -0.000000 -0.000000 -0.000000 0.000000 0.000000 0.000000 0.000000 0.000000 -13.492614 3.141657 -0.244673 78.119722 23.606329 29.111780 -98.344404 70.604666 -81.141312 8.463216 -1.705135 -0.239134 0.000000 -0.000000 0.000000 0.000000 -0.000000 0.000000 0.000000 -0.000000 0.000000 
-20.868619 15.704054 12.068243 107.589604 81.035594 115.022072 -0.946826 -5.512134 -11.176735 -17.069017 -6.793492 -19.294321 -10.543217 15.978193 38.078203 12.465256 7.517905 -3.090077 17.280983 -5.624532 -19.372162 6.613438 11.646276 -11.283705 -3.408103 -6.141715 -19.634015 -11.905622 -21.630864 80.923365 7.961569 -3.532520 3.830397 2.470633 7.500453 11.444023 -7.634591 0.008889 26.075301 1.738366 1.086354 -10.429140 0.739025 0.810896 0.808063 -5.608460 0.535353 -14.893283 1.801174 0.959890 7.409653 4.649651 -1.753698 14.947864 10.405239 -1.130845 -1.164743 -83.390308 -18.322938 11.563555 159.070907 -72.219120 -162.120999 2.928148 22.156821 -2.622477 -0.000000 -0.000000 -0.000000 0.000000 0.000000 0.000000 -0.000000 -0.000000 -0.000000 -13.683789 2.749557 -0.616193 78.448394 23.071019 27.680456 -92.681673 72.012812 -75.494269 7.416829 -2.554813 -0.415453 -0.000000 0.000000 -0.000000 0.000000 0.000000 -0.000000 -0.000000 0.000000 -0.000000 
-20.676727 15.669970 12.044595 105.909242 81.446331 113.300328 -1.144256 -5.492969 -11.201904 -16.733665 -6.142266 -19.115930 -9.689698 16.922281 39.096353 12.892504 7.177261 -3.163144 18.479198 -6.084675 -20.482525 7.203960 11.549397 -11.025202 -3.897502 -5.674038 -21.558732 -12.659634 -22.065668 82.016997 5.505147 -4.511165 3.306317 0.740661 8.547102 8.104797 -7.484400 0.102422 25.928482 1.795251 1.135309 -10.477050 0.675865 0.878704 0.903595 -5.470682 0.634874 -14.769639 1.995474 1.015716 7.154882 4.744049 -1.328356 14.698339 10.091642 -1.739963 -0.664026 -82.142594 -21.784320 11.255817 159.318430 -73.304725 -161.597205 4.193044 20.951101 -2.260501 -0.000000 -0.000000 -0.000000 0.000000 -0.000000 0.000000 -0.000000 -0.000000 0.000000 -13.106655 2.171694 -0.844928 78.626041 22.051845 25.076703 -85.060138 74.361328 -68.081175 6.621670 -3.171923 -0.532950 0.000000 0.000000 0.000000 -0.000000 -0.000000 0.000000 0.000000 0.000000 0.000000 
